<?xml version="1.0" encoding="UTF-8" standalone="no"?>
<!-- Created with Inkscape (http://www.inkscape.org/) -->

<svg
   width="14.713541mm"
   height="13.123336mm"
   viewBox="0 0 14.713541 13.123336"
   version="1.1"
   id="svg1"
   xml:space="preserve"
   xmlns:inkscape="http://www.inkscape.org/namespaces/inkscape"
   xmlns:sodipodi="http://sodipodi.sourceforge.net/DTD/sodipodi-0.dtd"
   xmlns="http://www.w3.org/2000/svg"
   xmlns:svg="http://www.w3.org/2000/svg"><sodipodi:namedview
     id="namedview1"
     pagecolor="#ffffff"
     bordercolor="#000000"
     borderopacity="0.25"
     inkscape:showpageshadow="2"
     inkscape:pageopacity="0.0"
     inkscape:pagecheckerboard="0"
     inkscape:deskcolor="#d1d1d1"
     inkscape:document-units="mm"><inkscape:page
       x="-1.1320978e-05"
       y="-5.8606338e-06"
       width="14.71354"
       height="13.123335"
       id="page3"
       margin="0"
       bleed="0" /></sodipodi:namedview><defs
     id="defs1" /><g
     id="g1"
     inkscape:groupmode="layer"
     inkscape:label="1"
     transform="matrix(0.26458334,0,0,0.26458335,-202.81887,-112.76668)"><g
       id="group-R5"
       transform="translate(1.1125071,4.4500283)"><path
         id="path2"
         d="M 8000,0 H 0 V 8000 H 8000 V 0"
         style="fill:#ffffff;fill-opacity:1;fill-rule:nonzero;stroke:none"
         transform="matrix(0.13333333,0,0,-0.13333333,0,1066.6667)" /><path
         id="path3"
         d="m 0,2876.7 h 2502.31 v 942.5 H 0 v -942.5"
         style="fill:#212e5d;fill-opacity:1;fill-rule:evenodd;stroke:none"
         transform="matrix(0.13333333,0,0,-0.13333333,0,1066.6667)" /><path
         id="path4"
         d="m 1230.34,3109.28 c 0,38.28 -3.33,48.24 -54.9,61.54 -31.6,6.65 -31.6,6.65 -31.6,26.58 0,13.35 4.98,16.68 23.29,16.68 18.31,0 31.61,-1.66 54.9,-4.99 l 3.32,36.56 c -21.63,4.99 -41.57,6.65 -58.22,6.65 -53.23,0 -66.53,-14.96 -66.53,-54.9 0,-41.54 6.65,-51.5 53.24,-61.54 31.6,-6.65 33.26,-8.3 33.26,-26.58 0,-16.62 -5.01,-19.95 -26.61,-19.95 -21.63,0 -38.25,3.33 -56.55,8.32 l -8.32,-33.3 c 16.62,-6.65 41.57,-11.64 63.21,-11.64 58.21,0 71.51,18.28 71.51,56.57 z m -219.55,-54.91 h 53.22 v 194.61 h -41.59 v -133.06 l -63.205,133.06 h -54.867 v -194.61 h 41.57 v 128.08 z m -182.97,61.55 c 0,-14.96 -9.968,-24.92 -31.609,-24.92 -21.625,0 -31.598,9.96 -31.598,24.92 v 73.17 c 0,15.01 9.973,24.99 31.598,24.99 21.641,0 31.609,-9.98 31.609,-24.99 z m 43.235,76.49 c 0,29.98 -19.942,59.89 -74.844,59.89 -54.898,0 -74.832,-29.91 -74.832,-59.89 v -81.47 c 0,-28.25 19.934,-58.23 74.832,-58.23 54.902,0 74.844,29.98 74.844,58.23 z m -254.477,-6.64 c 0,16.67 6.68,26.65 28.277,26.65 13.325,0 33.266,-1.67 49.911,-4.99 l 4.984,38.22 c -18.309,4.99 -36.586,6.65 -54.895,6.65 -49.89,0 -71.503,-24.93 -71.503,-59.89 v -81.47 c 0,-34.9 21.613,-58.23 71.503,-58.23 18.309,0 36.586,1.66 54.895,4.99 l -4.984,38.27 c -16.645,-3.31 -36.586,-4.97 -49.911,-4.97 -21.597,0 -28.277,9.96 -28.277,28.24 z m -78.16,-131.4 v 194.61 h -43.266 v -194.61 h 43.266"
         style="fill:#ffffff;fill-opacity:1;fill-rule:nonzero;stroke:none"
         transform="matrix(0.13333333,0,0,-0.13333333,0,1066.6667)" /><path
         id="path5"
         d="m 462.672,3595.06 c 0,17.91 15.238,32.39 33.527,32.39 18.289,0 33.531,-14.48 33.531,-32.39 v -70.1 h 99.063 v 70.1 c 0,17.91 15.238,32.39 33.527,32.39 18.672,0 33.532,-14.48 33.532,-32.39 v -201.94 c 0,-17.14 -15.243,-32.38 -33.532,-32.38 -18.289,0 -33.527,14.47 -33.527,32.38 v 72.4 H 529.73 v -72.4 c 0,-17.14 -15.242,-32.38 -33.531,-32.38 -18.289,0 -33.527,14.47 -33.527,32.38 v 201.94"
         style="fill:#ffffff;fill-opacity:1;fill-rule:nonzero;stroke:none"
         transform="matrix(0.13333333,0,0,-0.13333333,0,1066.6667)" /><path
         id="path6"
         d="m 744.633,3591.63 c 0,17.91 14.859,32.39 33.531,32.39 h 145.93 c 15.617,0 28.574,-13.34 28.574,-29.72 0,-16.38 -12.957,-29.72 -28.574,-29.72 H 811.695 v -39.62 h 92.2 c 15.621,0 28.578,-13.34 28.578,-29.73 0,-16.37 -12.957,-29.71 -28.578,-29.71 h -92.2 v -41.54 h 112.399 c 15.617,0 28.574,-13.33 28.574,-29.71 0,-16.38 -12.957,-29.72 -28.574,-29.72 h -145.93 c -18.672,0 -33.531,14.48 -33.531,32.38 v 194.7"
         style="fill:#ffffff;fill-opacity:1;fill-rule:nonzero;stroke:none"
         transform="matrix(0.13333333,0,0,-0.13333333,0,1066.6667)" /><path
         id="path7"
         d="m 1057.46,3465.14 h 47.25 l -23.25,78.86 z m -86.87,-59.44 64.01,187.07 c 8,23.25 23.62,35.06 47.25,35.06 24,0 40,-11.81 48,-35.06 l 62.49,-187.07 c 1.9,-5.34 2.66,-9.91 2.66,-14.1 0,-18.67 -14.09,-30.86 -33.91,-30.86 -16.38,0 -27.81,8 -32,22.1 l -8.38,28.58 h -79.64 l -8.76,-28.58 c -4.57,-14.86 -15.62,-22.1 -32.763,-22.1 -19.434,0 -32.008,13.71 -32.008,30.86 0,4.19 1.145,8.76 3.051,14.1"
         style="fill:#ffffff;fill-opacity:1;fill-rule:nonzero;stroke:none"
         transform="matrix(0.13333333,0,0,-0.13333333,0,1066.6667)" /><path
         id="path8"
         d="m 1223.21,3595.06 c 0,17.91 14.86,32.39 33.15,32.39 18.67,0 33.91,-14.48 33.91,-32.39 v -171.08 h 82.3 c 15.62,0 28.58,-13.33 28.58,-29.71 0,-16.38 -12.96,-29.72 -28.58,-29.72 h -115.83 c -18.67,0 -33.53,14.48 -33.53,32.38 v 198.13"
         style="fill:#ffffff;fill-opacity:1;fill-rule:nonzero;stroke:none"
         transform="matrix(0.13333333,0,0,-0.13333333,0,1066.6667)" /><path
         id="path9"
         d="M 1436.21,3624.02 H 1613 c 15.62,0 28.96,-13.34 28.96,-29.72 0,-16.38 -13.34,-29.72 -28.96,-29.72 h -54.87 v -171.46 c 0,-17.14 -15.23,-32.38 -33.52,-32.38 -18.29,0 -33.53,14.47 -33.53,32.38 v 171.46 h -54.87 c -15.62,0 -28.95,13.34 -28.95,29.72 0,16.38 13.33,29.72 28.95,29.72"
         style="fill:#ffffff;fill-opacity:1;fill-rule:nonzero;stroke:none"
         transform="matrix(0.13333333,0,0,-0.13333333,0,1066.6667)" /><path
         id="path10"
         d="m 1666.36,3595.06 c 0,17.91 15.24,32.39 33.53,32.39 18.28,0 33.52,-14.48 33.52,-32.39 v -70.1 h 99.07 v 70.1 c 0,17.91 15.24,32.39 33.53,32.39 18.67,0 33.53,-14.48 33.53,-32.39 v -201.94 c 0,-17.14 -15.24,-32.38 -33.53,-32.38 -18.29,0 -33.53,14.47 -33.53,32.38 v 72.4 h -99.07 v -72.4 c 0,-17.14 -15.24,-32.38 -33.52,-32.38 -18.29,0 -33.53,14.47 -33.53,32.38 v 201.94"
         style="fill:#ffffff;fill-opacity:1;fill-rule:nonzero;stroke:none"
         transform="matrix(0.13333333,0,0,-0.13333333,0,1066.6667)" /><path
         id="path11"
         d="m 7251.77,733.719 v 0 c -95.19,0 -172.34,13.082 -172.34,29.551 0,16.339 77.15,29.429 172.34,29.429 1.57,0 3.13,0 4.97,0 l -41.06,-39.367 c 0,0 78.71,-8.113 152.59,1.699 l 16.34,27.848 c 24.59,-6.527 37.79,-13.199 37.79,-19.609 0,-16.469 -75.45,-29.551 -170.63,-29.551 z m 23.02,55.691 v 0 l 90.21,90.102 c 3.27,3.398 8.11,3.398 11.5,0 1.58,-3.27 1.58,-8.102 0,-11.383 l -90.21,-88.52 c -1.84,-3.257 -3.4,-3.257 -4.97,-3.257 -3.4,0 -4.97,1.558 -6.53,3.257 -3.4,1.7 -3.4,6.539 0,9.801 z m 116.36,113.11 v 0 c 4.97,0 9.94,-4.961 9.94,-9.809 0,-6.531 -4.97,-9.801 -9.94,-9.801 -4.84,0 -9.8,3.27 -9.8,9.801 0,4.848 4.96,9.809 9.8,9.809 z m 69.05,-127.868 v 0 c -4.98,11.496 -27.99,19.739 -64.08,26.278 l 55.83,91.781 c 8.25,11.508 4.85,26.16 -6.54,36.098 l -6.66,4.832 c -11.5,8.23 -26.15,8.23 -36.09,-1.571 L 7276.35,812.43 c -8.11,0 -16.48,0 -24.58,0 -111.67,0 -201.89,-16.469 -208.43,-37.778 v 0 0 c 0,-1.57 0,-1.57 0,-1.57 v 0 c 0,-1.703 0,-1.703 0,-3.402 0,-114.68 93.5,-208.039 208.43,-208.039 114.8,0 208.43,93.359 208.43,209.738 0,0 0,0 0,1.703 v 0 c 0,0 0,0 0,1.57 v 0"
         style="fill:#706d6e;fill-opacity:1;fill-rule:nonzero;stroke:none"
         transform="matrix(0.13333333,0,0,-0.13333333,0,1066.6667)" /><path
         id="path12"
         d="m 6105.04,900.961 c 4.71,-18.051 4.71,-34.52 0,-52.559 -4.97,-16.351 -11.64,-34.402 -19.88,-52.441 -8.11,-18.051 -13.07,-31.121 -14.64,-42.629 0,-4.832 0,-17.91 0,-40.934 0,-23.007 0,-44.308 -3.4,-65.628 -9.81,-70.481 -24.58,-104.879 -45.89,-104.879 -4.84,0 -8.24,1.699 -11.51,3.281 -3.27,3.269 -6.67,8.238 -8.24,13.066 -1.57,6.672 -3.14,11.641 -4.98,16.481 0,6.531 0,13.07 0,23.011 0,8.11 0,16.352 0,21.192 1.84,6.668 1.84,14.769 1.84,23.008 1.57,16.34 1.57,27.859 1.57,34.39 -3.41,37.649 -19.62,57.399 -49.17,57.399 -27.98,0 -44.45,-19.75 -47.6,-57.399 -1.82,-4.84 -1.82,-16.351 0,-34.39 0,-8.239 1.59,-16.34 1.59,-23.008 0,-4.84 0,-13.082 0,-21.192 1.56,-9.941 0,-16.48 0,-23.011 -1.59,-4.84 -1.59,-9.809 -3.41,-16.481 -3.14,-4.828 -4.84,-9.797 -8.11,-13.066 -3.27,-1.582 -8.23,-3.281 -11.5,-3.281 -23.02,0 -37.67,34.398 -47.6,104.879 -1.57,21.32 -3.27,42.621 -1.57,65.628 0,21.321 0,34.403 -1.7,40.934 -1.7,11.508 -6.66,24.578 -14.77,42.629 -8.11,18.039 -13.08,36.09 -18.04,52.441 -4.97,18.039 -6.55,34.508 -3.4,52.559 8.36,27.848 21.44,45.898 44.45,54 14.65,4.961 34.51,4.961 59.1,-3.27 24.58,-6.531 41.06,-11.511 52.56,-11.511 11.51,0 29.55,4.98 54.14,11.511 23.01,8.231 42.62,8.231 59.1,3.27 21.18,-8.102 36.09,-26.152 41.06,-54 v 0"
         style="fill:#706d6e;fill-opacity:1;fill-rule:nonzero;stroke:none"
         transform="matrix(0.13333333,0,0,-0.13333333,0,1066.6667)" /><path
         id="path13"
         d="m 4853.18,953.391 v 0 c -4.97,6.531 -13.07,6.531 -18.04,1.57 L 4675.88,822.25 h 41.05 l 134.55,113.09 c 4.97,4.84 6.66,13.082 1.7,18.051 z M 4708.69,912.32 v 0 c 3.27,6.551 1.7,14.789 -4.83,18.051 -4.97,3.27 -13.22,1.699 -18.04,-3.262 L 4616.78,822.25 h 31.11 z M 4559.38,592.762 v 0 -34.524 c 0,-8.097 6.53,-16.347 16.34,-16.347 h 123.17 c 9.8,0 16.48,8.25 16.48,16.347 v 34.524 c -24.73,-9.801 -50.99,-14.77 -77.15,-14.77 -27.99,0 -54.26,4.969 -78.84,14.77 z M 4442.87,797.66 h 388.87 c 0,-108.269 -86.95,-195.09 -193.52,-195.09 -108.4,0 -195.35,86.821 -195.35,195.09 v 0"
         style="fill:#706d6e;fill-opacity:1;fill-rule:nonzero;stroke:none"
         transform="matrix(0.13333333,0,0,-0.13333333,0,1066.6667)" /><path
         id="path14"
         d="m 3348.57,566.48 v 0 c 36.22,0 65.64,29.559 65.64,65.641 0,29.418 -18.04,54 -44.32,62.238 v 50.86 h -8.11 v 9.812 h 8.11 v 27.848 h -8.11 v 9.82 h 8.11 v 26.262 h -8.11 v 9.82 h 8.11 v 81.981 c 0,13.078 -9.81,22.879 -22.89,22.879 -13.2,0 -23.01,-9.801 -23.01,-22.879 V 692.66 c -23.01,-9.808 -39.36,-32.691 -39.36,-60.539 0,-36.082 29.55,-65.641 63.94,-65.641 z m 45.9,144.219 v 0 c 27.98,-16.34 46.02,-45.898 46.02,-78.578 0,-49.16 -41.05,-90.23 -91.92,-90.23 -49.29,0 -90.22,41.07 -90.22,90.23 0,31.117 16.35,58.969 40.93,75.449 v 203.192 c 0,26.148 21.44,47.457 47.72,47.457 26.29,0 47.47,-21.309 47.47,-47.457 z m -31.12,-34.379 c 18.04,-6.531 31.12,-22.879 31.12,-42.629 0,-26.152 -19.62,-45.902 -45.9,-45.902 -24.58,0 -44.32,19.75 -44.32,45.902 0,18.051 11.5,34.399 27.98,41.059 l 4.97,1.57 v 142.641 c 0,4.848 4.84,8.121 9.8,8.121 6.54,0 9.81,-3.273 9.81,-8.121 V 678.02 l 6.54,-1.7"
         style="fill:#706d6e;fill-opacity:1;fill-rule:nonzero;stroke:none"
         transform="matrix(0.13333333,0,0,-0.13333333,0,1066.6667)" /><path
         id="path15"
         d="m 1996.69,787.852 v 0 l 19.74,34.398 v 86.809 h -23.01 c -6.54,0 -11.38,6.55 -11.38,13.082 0,8.23 4.84,13.199 11.38,13.199 h 111.53 c 6.67,0 13.21,-4.969 13.21,-13.199 0,-6.532 -6.54,-13.082 -13.21,-13.082 h -22.88 V 822.25 l 19.75,-34.398 c 9.8,-18.172 23.01,-41.051 36.09,-63.942 -44.33,0 -142.79,0 -177.31,0 13.2,22.891 26.28,45.77 36.09,63.942 z m 26.28,-141.082 v 0 c 0,9.929 8.24,18.031 19.74,18.031 9.81,0 19.62,-8.102 19.62,-18.031 0,-11.379 -9.81,-19.618 -19.62,-19.618 -11.5,0 -19.74,8.239 -19.74,19.618 z m -44.33,29.55 v 0 c 0,11.5 9.94,21.321 21.45,21.321 11.37,0 19.61,-9.821 19.61,-21.321 0,-9.82 -8.24,-19.621 -19.61,-19.621 -11.51,0 -21.45,9.801 -21.45,19.621 z m 13.21,-32.691 v 0 c 9.81,0 19.61,-9.938 19.61,-19.738 0,-11.512 -9.8,-19.75 -19.61,-19.75 -11.51,0 -19.75,8.238 -19.75,19.75 0,9.8 8.24,19.738 19.75,19.738 z m 229.74,-18.039 -23.02,40.91 c -21.31,36.102 -55.7,96.77 -77.14,132.73 l -16.48,29.551 v 57.399 c 19.88,0 36.22,16.34 36.22,35.961 0,19.73 -16.34,36.078 -36.22,36.078 h -111.53 c -19.62,0 -34.39,-16.348 -34.39,-36.078 0,-19.621 14.77,-35.961 34.39,-35.961 v -57.399 l -16.34,-29.551 c -21.45,-35.96 -54.14,-96.628 -75.58,-132.73 l -24.59,-40.91 c -6.53,-11.508 -9.8,-24.59 -9.8,-36.102 0,-6.527 0,-13.199 3.27,-19.609 4.97,-8.238 11.5,-16.469 21.31,-19.738 9.81,-4.969 21.31,-8.25 32.82,-8.25 h 49.29 c 40.93,0 109.97,0 152.6,0 h 47.59 c 16.48,0 31.12,4.98 42.63,13.089 4.97,4.961 9.94,9.93 11.51,14.899 3.27,6.41 4.97,13.082 4.97,19.609 0,11.512 -4.97,24.594 -11.51,36.102 v 0"
         style="fill:#706d6e;fill-opacity:1;fill-rule:nonzero;stroke:none"
         transform="matrix(0.13333333,0,0,-0.13333333,0,1066.6667)" /><path
         id="path16"
         d="m 802.363,599.301 v 0 c 0,16.34 -9.937,32.82 -23.011,42.629 h -1.571 v 283.48 c 0,14.77 -11.508,26.281 -26.281,26.281 -14.777,0 -27.852,-11.511 -27.852,-26.281 v -3.269 h 22.879 c 1.703,0 4.973,-3.27 4.973,-4.84 0,-3.27 -3.27,-4.981 -4.973,-4.981 h -22.879 v -22.871 h 39.36 c 3.265,0 6.535,-3.269 4.836,-6.539 1.699,-3.398 -1.571,-4.961 -4.836,-4.961 h -39.36 v -22.89 h 22.879 c 1.703,0 4.973,-1.7 4.973,-4.957 0,-3.282 -3.27,-4.981 -4.973,-4.981 H 723.648 V 641.93 h -1.699 c -13.078,-9.809 -21.312,-26.289 -21.312,-42.629 0,-27.852 23.011,-50.86 50.863,-50.86 27.852,0 50.863,23.008 50.863,50.86 z m 6.539,0 v 0 c 0,-31.121 -26.152,-57.41 -57.402,-57.41 -32.816,0 -57.402,26.289 -57.402,57.41 0,18.039 8.105,36.09 23.011,45.898 v 272.102 8.109 c 0,18.051 14.645,32.809 34.391,32.809 18.043,0 32.816,-14.758 32.816,-32.809 V 645.199 c 14.782,-9.808 24.586,-27.859 24.586,-45.898 z m -31.121,-3.262 c 0,-14.789 -11.508,-26.16 -26.281,-26.16 -16.344,0 -27.852,11.371 -27.852,26.16 0,9.801 4.836,18.043 11.508,22.883 V 763.27 c 0,8.109 6.539,14.64 16.344,14.64 8.234,0 14.773,-6.531 14.773,-14.64 V 618.922 c 6.54,-4.84 11.508,-13.082 11.508,-22.883 v 0"
         style="fill:#706d6e;fill-opacity:1;fill-rule:nonzero;stroke:none"
         transform="matrix(0.13333333,0,0,-0.13333333,0,1066.6667)" /><path
         id="path17"
         d="m 7371.28,2048.47 v 0 c 11.5,13.07 23.02,24.58 36.08,31.12 v -63.95 c -14.9,8.25 -24.58,19.75 -36.08,32.83 z m -97.02,-40.93 v 0 c -8.11,-1.7 -16.21,-1.7 -26.15,-1.7 -6.55,0 -13.08,0 -19.61,1.7 l 1.56,86.83 c 6.54,0 13.08,1.57 19.62,1.57 9.93,0 18.03,-1.57 26.41,-3.27 z m -111.41,44.2 v 0 c 14.65,14.77 27.99,27.85 44.2,36.09 v -72.19 c -18.05,8.25 -31.12,21.32 -44.2,36.1 z m -67.46,31.11 v 0 c 11.63,-8.23 21.44,-19.61 31.37,-31.11 -9.93,-9.94 -19.74,-21.31 -32.95,-27.85 z m 239.81,-34.38 v 0 c -13.34,-11.51 -24.85,-23.02 -37.93,-31.13 l 1.83,65.51 c 13.08,-9.8 24.58,-21.31 36.1,-34.38 z m 119.76,-73.74 v 26.15 c -8.1,1.7 -18.05,1.7 -26.41,4.96 l 1.83,83.55 c 8.11,1.7 16.48,3.28 26.15,3.28 l 1.58,26.28 c -50.75,1.57 -80.3,-24.58 -104.88,-49.3 -24.58,26.29 -52.57,52.57 -103.55,52.57 -50.73,1.57 -78.72,-24.58 -103.3,-49.17 -24.58,26.15 -52.57,52.44 -103.43,52.44 v -26.29 c 11.5,0 21.31,-1.56 29.69,-4.83 l -1.84,-81.99 c -8.1,-3.27 -18.05,-3.27 -29.55,-3.27 v -27.85 c 49.43,0 78.85,24.58 103.55,50.73 22.76,-27.85 52.57,-52.43 103.31,-54 50.99,0 80.54,24.59 105.12,50.74 22.76,-27.85 50.73,-54 101.73,-54 v 0"
         style="fill:#706d6e;fill-opacity:1;fill-rule:nonzero;stroke:none"
         transform="matrix(0.13333333,0,0,-0.13333333,0,1066.6667)" /><path
         id="path18"
         d="m 6157.08,2038.66 v -31.12 h -67.21 l -34.52,-67.33 c -3.4,-4.84 -8.37,-8.12 -14.9,-8.12 -6.54,1.58 -11.5,4.84 -13.09,11.51 l -26.15,75.32 -24.57,-55.7 c -1.84,-4.98 -8.38,-9.81 -14.91,-8.24 -8.11,0 -13.08,4.96 -14.91,13.08 l -21.18,134.41 -26.15,-204.76 c -1.83,-8.24 -6.79,-13.21 -14.9,-13.21 v 0 c -8.12,0 -14.65,4.97 -16.48,11.51 l -29.56,158.99 -19.6,-39.36 c -1.58,-4.96 -8.11,-8.1 -13.08,-8.1 h -65.64 v 31.12 h 55.71 l 34.51,72.04 c 3.4,6.55 9.94,9.82 16.47,9.82 6.54,-1.57 11.52,-6.54 13.08,-13.08 l 21.45,-111.54 26.15,208.3 c 1.56,8.1 8.37,13.08 14.9,13.08 8.11,0 14.65,-4.98 16.21,-13.08 l 29.55,-180.31 19.88,45.76 c 1.57,6.67 8.11,9.94 14.65,9.94 6.54,0 11.51,-4.97 14.64,-11.5 l 27.98,-80.3 21.45,42.64 c 3.14,4.96 8.1,8.23 14.64,8.23 h 75.58"
         style="fill:#706d6e;fill-opacity:1;fill-rule:nonzero;stroke:none"
         transform="matrix(0.13333333,0,0,-0.13333333,0,1066.6667)" /><path
         id="path19"
         d="m 4649.2,1866.46 v 0 c 36.09,0 65.64,29.55 65.64,65.63 0,29.43 -19.61,54 -46.03,62.25 v 50.86 h -6.53 v 9.8 h 6.53 v 27.85 h -6.53 v 9.82 h 6.53 v 26.28 h -6.53 v 9.8 h 6.53 v 81.99 c 0,13.07 -9.67,22.87 -22.75,22.87 -11.51,0 -21.44,-9.8 -21.44,-22.87 v -218.1 c -24.58,-9.81 -41.06,-32.7 -41.06,-60.55 0,-36.08 29.56,-65.63 65.64,-65.63 z m 44.45,144.22 v 0 c 27.73,-16.34 45.77,-45.89 45.77,-78.59 0,-49.16 -41.06,-90.22 -90.22,-90.22 -49.16,0 -90.22,41.06 -90.22,90.22 0,31.13 14.64,58.98 39.22,75.45 v 203.2 c 0,26.15 21.45,47.46 47.86,47.46 27.73,0 47.59,-21.31 47.59,-47.46 z m -31.37,-34.39 c 19.87,-6.53 31.37,-24.58 31.37,-44.2 0,-24.57 -19.86,-44.32 -44.45,-44.32 -24.58,0 -45.76,19.75 -45.76,44.32 0,18.05 11.25,35.97 27.71,42.64 l 6.55,1.56 v 142.66 c 0,4.84 3.39,8.1 9.94,8.1 4.96,0 9.93,-3.26 9.93,-8.1 v -140.96 l 4.71,-1.7"
         style="fill:#706d6e;fill-opacity:1;fill-rule:nonzero;stroke:none"
         transform="matrix(0.13333333,0,0,-0.13333333,0,1066.6667)" /><path
         id="path20"
         d="m 3397.34,2020.49 v 0 l -26.15,27.98 c -3.4,3.27 -8.1,3.27 -11.5,0 -3.4,-3.27 -3.4,-8.24 0,-11.51 l 26.15,-27.85 -11.51,-11.5 -26.15,27.84 c -3.14,3.28 -8.11,3.28 -11.51,0 -3.39,-3.26 -3.39,-8.11 0,-11.5 l 26.42,-27.86 -11.51,-9.8 -26.41,26.29 c -3.14,3.26 -8.11,3.26 -11.51,1.56 -3.14,-3.26 -3.14,-8.24 0,-11.5 l 26.41,-27.85 -11.5,-11.38 -26.42,27.85 c -3.13,3.27 -8.1,3.27 -11.24,0 -3.4,-3.27 -3.4,-8.23 0,-11.5 l 26.15,-27.86 -21.44,-21.31 -60.67,16.34 c -1.57,1.7 -1.57,1.7 -1.57,1.7 l -13.08,60.68 137.82,132.71 75.31,-77.02 z m 154.3,113.1 -111.41,114.81 c -3.4,4.96 -6.8,6.53 -11.76,6.53 -4.71,0 -9.68,-1.57 -13.08,-4.83 l -3.14,-3.27 c -6.54,-6.67 -8.37,-18.05 0,-26.28 l 32.69,-34.4 -39.23,-39.35 -44.46,45.9 c -6.53,6.53 -18.04,6.53 -26.14,0 l -3.41,-4.98 c -8.1,-6.53 -8.1,-18.04 0,-24.58 l 4.97,-6.54 -145.92,-140.96 c -3.4,-3.26 -4.97,-9.8 -4.97,-14.76 l 14.64,-63.95 -52.56,-50.73 c -9.67,-8.23 -9.67,-23.02 0,-32.82 8.37,-9.81 24.85,-9.81 34.52,-1.7 l 52.57,52.44 v 0 l 60.67,-16.35 c 4.97,-1.57 11.5,0 16.47,3.27 l 144.36,142.65 6.53,-6.53 c 6.81,-6.67 18.05,-6.67 26.42,0 l 3.13,3.27 c 3.4,3.26 4.97,8.23 4.97,13.07 0,4.97 -1.57,9.8 -4.97,13.08 l -42.62,44.32 39.49,39.35 34.52,-34.51 c 3.14,-3.27 8.1,-4.84 13.07,-4.84 4.97,0 8.11,1.57 13.08,4.84 l 1.57,3.4 c 8.36,6.54 8.36,17.91 0,24.45 v 0"
         style="fill:#706d6e;fill-opacity:1;fill-rule:nonzero;stroke:none"
         transform="matrix(0.13333333,0,0,-0.13333333,0,1066.6667)" /><path
         id="path21"
         d="m 2017.87,1941.9 v 0 c 3.14,0 4.97,-3.27 4.97,-6.53 0,-1.7 -1.83,-4.98 -4.97,-4.98 -3.4,0 -4.97,3.28 -4.97,4.98 0,3.26 1.57,6.53 4.97,6.53 z m -6.54,206.46 v 0 c 1.57,0 4.71,-1.56 4.71,-4.82 0,-3.29 -3.14,-6.55 -4.71,-6.55 -3.4,0 -6.54,3.26 -6.54,6.55 0,3.26 3.14,4.82 6.54,4.82 z m 168.94,-283.48 H 2063.9 c -8.37,0 -13.34,6.55 -13.34,13.09 v 29.55 c 0,13.07 6.8,24.57 18.04,29.41 4.97,1.7 6.8,6.67 4.97,9.81 l -11.5,29.55 c 0,3.27 0,6.54 3.39,6.54 l 88.66,36.09 c 3.14,0 4.7,3.27 6.53,4.97 1.58,3.27 1.58,6.54 0,9.8 -1.83,4.97 -8.36,8.11 -14.64,6.54 l -138.08,-54.14 c -3.14,-1.56 -6.53,-6.53 -4.97,-9.8 l 1.83,-6.53 c 0,-1.7 0,-3.28 -1.83,-4.97 0,-1.57 -3.14,-1.57 -4.97,-1.57 -13.07,1.57 -36.09,11.51 -44.19,50.73 -9.94,55.7 41.06,81.99 65.64,91.79 3.4,1.7 6.54,1.7 9.94,0 3.13,-1.57 4.7,-3.27 6.53,-6.54 l -4.96,-1.56 c -1.57,-1.7 -1.57,-3.27 -1.57,-4.97 1.57,-1.58 1.57,-1.58 3.13,-1.58 1.57,0 1.57,0 1.57,0 l 4.97,1.58 c 3.4,-4.84 8.37,-9.82 14.91,-11.38 l -1.83,-4.97 c 0,-3.27 1.83,-4.97 3.4,-4.97 v 0 c 1.83,0 3.4,1.7 3.4,3.27 l 1.57,4.97 c 1.57,-1.7 3.4,-1.7 4.96,-1.7 4.97,0 8.11,1.7 13.08,3.4 l 1.57,-6.67 c 1.83,0 3.4,-1.57 3.4,-1.57 1.57,0 1.57,0 1.57,0 1.57,1.57 3.4,3.27 1.57,4.84 l -3.14,6.54 c 4.97,3.4 9.94,6.66 11.5,13.21 l 4.98,-3.27 c 0,0 0,0 1.56,0 l 1.58,1.57 c 1.56,1.7 1.56,4.96 0,4.96 l -6.54,3.27 c 1.56,1.57 1.56,4.97 1.56,6.53 0,4.98 -1.56,8.25 -3.14,13.09 l 4.98,1.7 c 1.56,0 1.56,1.56 1.56,4.83 -1.56,1.7 -3.4,1.7 -4.96,1.7 l -3.14,-3.27 c -3.4,3.27 -4.97,6.54 -8.37,8.24 -1.57,1.56 -3.14,3.26 -4.97,4.85 l -37.66,85.24 c -3.4,6.53 -11.5,9.81 -19.61,6.53 -1.83,0 -3.4,0 -4.97,3.28 l -8.1,14.77 c -1.84,6.54 -8.37,8.24 -13.34,6.54 -4.71,-3.27 -6.54,-9.8 -4.71,-14.77 l 8.1,-14.65 c 0,-1.7 0,-3.4 0,-3.4 -1.83,-1.57 -1.83,-1.57 -3.39,-3.27 -3.14,-1.56 -6.54,-3.26 -8.11,-6.53 0,-4.84 0,-8.24 0,-11.38 l 13.08,-26.29 c 1.56,-4.82 0,-9.8 -4.97,-11.5 -32.69,-14.77 -99.9,-57.27 -83.69,-152.46 8.11,-47.47 34.52,-68.77 55.97,-80.28 9.67,-4.84 16.21,-14.78 16.21,-27.85 v -26.15 c 0,-8.24 -4.97,-13.21 -13.07,-13.21 h -29.56 c -4.97,0 -8.11,-4.84 -8.11,-8.24 v -16.35 h 254.19 v 14.78 c 0,4.97 -3.13,8.23 -8.1,8.23 v 0"
         style="fill:#706d6e;fill-opacity:1;fill-rule:nonzero;stroke:none"
         transform="matrix(0.13333333,0,0,-0.13333333,0,1066.6667)" /><path
         id="path22"
         d="m 787.457,2050.04 v 0 c 0,-21.31 -18.043,-37.66 -37.656,-37.66 -21.446,0 -39.488,16.35 -39.488,37.66 0,21.31 18.042,37.79 39.488,37.79 19.613,0 37.656,-16.48 37.656,-37.79 z m 121.344,-113.11 v 0 c -3.141,-4.84 -9.938,-8.1 -16.219,-11.37 -8.363,-3.4 -16.473,-4.97 -27.977,-4.97 -11.507,0 -23.011,1.57 -37.921,4.97 3.398,8.11 4.964,14.65 6.796,22.88 4.973,16.35 8.114,34.39 9.68,54.14 13.332,11.37 26.41,22.87 36.086,36.08 1.57,-3.27 3.399,-4.97 4.973,-6.67 9.937,-13.07 18.043,-27.85 24.582,-39.35 4.969,-13.08 6.535,-24.58 6.535,-32.7 0,-9.8 -1.566,-16.34 -6.535,-23.01 z m -96.758,-6.54 v 0 c -6.539,1.7 -14.648,3.28 -23.016,6.54 -8.109,3.28 -16.476,8.25 -24.586,11.51 14.911,6.54 27.985,16.35 41.063,24.59 8.105,4.96 14.902,9.8 21.18,16.34 -3.137,-22.89 -8.106,-42.63 -14.641,-58.98 z m -6.539,-18.04 v 0 c -8.109,-18.04 -18.047,-32.68 -26.152,-40.92 -4.973,-4.97 -9.938,-8.25 -14.911,-9.81 -4.964,-3.4 -9.933,-4.97 -14.64,-4.97 -4.973,0 -9.938,1.57 -14.906,4.97 -9.68,3.26 -18.043,11.37 -26.157,21.31 -6.535,9.8 -13.332,21.19 -18.039,34.39 8.106,1.57 14.645,3.27 22.746,6.54 11.77,4.97 23.016,9.81 34.524,16.35 13.336,-6.54 24.582,-11.38 36.09,-16.35 8.367,-3.27 14.906,-6.54 23.011,-8.24 -1.566,-1.57 -1.566,-3.27 -1.566,-3.27 z m -126.316,39.36 v 0 c -3.395,11.51 -4.965,24.58 -6.536,37.66 4.707,-4.84 11.243,-9.81 19.614,-14.64 13.078,-9.94 26.152,-18.05 39.488,-26.29 -8.363,-3.26 -14.902,-6.54 -23.016,-9.81 -8.367,-3.26 -16.472,-6.54 -23.011,-8.24 -3.399,6.54 -4.965,14.79 -6.539,21.32 z m -46.024,-29.55 v 0 c -11.504,0 -21.445,1.7 -27.976,4.97 -8.114,1.7 -13.079,6.54 -18.047,11.5 -3.141,6.55 -6.539,13.08 -6.539,21.31 0,9.82 3.398,21.32 8.367,32.7 6.539,14.9 16.219,31.25 29.551,46.02 l 1.57,-1.7 c 9.676,-11.51 21.18,-23.01 34.519,-34.38 3.141,-27.85 8.106,-54.14 16.211,-75.45 -14.644,-3.27 -26.148,-4.97 -37.656,-4.97 z m 19.613,103.29 v 0 c -9.675,8.24 -18.043,16.35 -24.578,24.59 l 1.567,3.26 c 6.797,8.24 14.906,14.79 23.011,23.02 0,-8.23 -1.566,-16.48 -1.566,-26.28 0,-8.24 1.566,-16.35 1.566,-24.59 z m -62.242,83.69 v 0 c -6.535,11.38 -8.101,22.88 -8.101,32.7 0,8.23 1.566,16.33 6.535,21.3 3.14,4.97 9.679,9.95 16.219,13.07 8.363,1.7 16.472,3.28 27.976,3.28 11.508,0 24.586,-1.58 37.656,-4.84 -3.132,-6.54 -4.965,-14.78 -6.535,-23.01 -4.969,-16.35 -8.109,-34.39 -9.676,-54 -13.339,-11.51 -26.41,-23.02 -36.089,-34.4 -1.832,1.57 -3.399,3.27 -4.969,4.85 -9.938,14.76 -18.043,27.85 -23.016,41.05 z m 95.192,62.25 v 0 c 8.113,-3.28 14.644,-4.98 23.011,-8.25 8.114,-3.27 16.477,-6.54 24.586,-9.8 -13.074,-8.24 -27.98,-16.35 -41.058,-26.29 -6.539,-4.83 -14.907,-9.8 -19.614,-14.65 3.141,21.19 6.536,40.94 13.075,58.99 z m 6.539,18.03 v 0 c 8.105,16.34 18.047,31.13 27.984,39.36 4.965,4.83 9.676,8.11 14.645,11.38 4.968,1.7 9.933,3.27 14.906,3.27 4.707,0 9.676,-1.57 14.64,-3.27 8.11,-4.85 16.477,-11.38 24.586,-22.88 6.536,-8.24 13.336,-19.75 18.043,-32.83 -8.105,-1.56 -14.644,-4.96 -23.011,-8.24 -11.508,-4.82 -22.754,-9.8 -34.258,-14.64 -11.508,6.54 -24.586,11.52 -36.356,16.34 -6.273,3.28 -14.64,4.98 -22.746,6.54 1.567,1.7 1.567,3.27 1.567,4.97 z m 126.312,-41.06 v 0 c 3.399,-11.37 6.535,-24.57 8.106,-35.96 -6.278,4.85 -13.075,9.82 -19.614,14.65 -14.644,9.94 -27.718,18.05 -41.058,24.59 8.367,4.96 16.476,8.23 23.015,9.93 8.368,3.27 16.477,6.54 23.016,8.11 3.395,-6.54 4.965,-14.64 6.535,-21.32 z m 11.504,-98.32 v 0 c 0,-13.08 0,-26.15 -1.566,-39.36 -9.938,-8.1 -19.879,-16.34 -31.121,-24.59 -16.477,-11.36 -32.954,-21.3 -49.426,-29.41 -14.645,8.11 -31.117,18.05 -47.598,29.41 -11.504,8.25 -21.183,16.49 -31.117,24.59 -1.566,13.21 -1.566,26.28 -1.566,39.36 0,14.77 0,27.85 1.566,41.05 9.934,8.11 21.445,16.35 31.117,22.89 16.481,11.51 32.953,21.31 49.43,29.56 16.211,-8.25 32.687,-18.05 47.594,-29.56 11.242,-8.24 21.183,-16.34 31.121,-24.59 1.566,-11.5 1.566,-24.58 1.566,-39.35 z m 14.645,26.28 v 0 c 9.937,-9.81 18.046,-18.04 24.843,-26.28 l -1.566,-3.27 c -6.805,-6.54 -14.906,-14.78 -23.277,-22.88 0,9.8 1.832,17.91 1.832,26.15 0,8.24 -1.832,16.47 -1.832,26.28 z m 19.878,101.59 v 0 c 11.504,0 21.442,0 27.977,-3.26 8.109,-3.26 13.078,-6.54 18.047,-13.08 4.707,-4.97 6.273,-13.21 6.273,-21.32 0,-9.93 -3.132,-21.3 -8.101,-32.81 -6.539,-14.77 -16.219,-29.55 -29.555,-45.9 v 1.7 c -11.242,11.38 -22.754,22.89 -36.086,34.4 -3.14,27.85 -8.105,54 -16.476,77.01 14.91,1.56 27.98,4.84 37.921,3.26 z m 26.149,-127.87 c 1.828,1.7 4.969,4.96 6.535,8.24 11.512,14.77 19.613,29.55 26.418,42.62 4.965,13.08 8.106,26.15 8.106,39.35 0,11.39 -3.141,21.32 -9.68,31.14 -5.231,8.1 -13.332,13.06 -23.27,16.33 -9.679,4.98 -21.183,6.54 -34.258,6.54 -13.078,0 -26.152,-1.56 -42.628,-6.54 0,3.28 -1.571,4.98 -3.399,8.24 -8.109,18.04 -18.047,32.82 -29.551,44.2 -6.539,6.67 -11.507,9.94 -19.613,13.2 -6.539,3.27 -13.074,4.84 -19.613,4.84 -8.371,0 -14.906,-1.57 -21.446,-4.84 -11.503,-4.96 -23.011,-14.77 -31.121,-26.28 -8.367,-11.5 -14.906,-22.88 -21.441,-37.66 -14.645,3.28 -29.555,6.54 -42.629,6.54 -11.504,0 -23.012,-1.7 -32.691,-6.54 -9.938,-3.27 -18.039,-8.23 -24.836,-16.33 -6.539,-9.95 -8.114,-19.75 -8.114,-31.25 0,-13.09 3.399,-26.16 8.114,-39.37 6.797,-16.34 18.039,-34.38 32.949,-50.73 -3.398,-3.27 -4.973,-6.54 -8.113,-9.94 -9.938,-14.64 -19.871,-27.85 -24.836,-42.49 -6.539,-13.22 -9.68,-26.28 -9.68,-39.37 0,-11.5 3.141,-21.31 9.68,-29.55 4.965,-8.23 13.332,-14.77 24.836,-18.04 8.113,-3.27 19.617,-4.83 32.691,-4.83 13.074,0 27.984,1.56 42.629,4.83 1.566,-1.57 1.566,-4.83 3.395,-6.53 8.113,-19.62 18.046,-34.39 29.55,-45.9 6.539,-4.97 13.078,-9.8 19.617,-13.07 6.54,-3.28 13.075,-4.98 21.446,-4.98 6.539,0 13.074,1.7 19.613,4.98 13.074,4.83 23.012,14.77 32.949,27.84 6.274,9.81 13.075,23.02 19.614,36.09 14.644,-3.26 29.55,-4.96 42.628,-4.96 13.075,0 23.012,1.7 32.684,4.96 9.941,3.27 18.047,9.81 24.844,18.05 6.539,8.1 9.68,19.61 9.68,31.11 0,11.52 -3.141,24.59 -9.68,39.37 -6.797,16.33 -18.039,32.68 -31.379,50.73 v 0"
         style="fill:#706d6e;fill-opacity:1;fill-rule:nonzero;stroke:none"
         transform="matrix(0.13333333,0,0,-0.13333333,0,1066.6667)" /><path
         id="path23"
         d="m 7218.82,3241.87 v 0 c 3.4,0 4.97,-3.26 4.97,-6.53 0,-1.7 -1.57,-4.97 -4.97,-4.97 -3.14,0 -6.53,3.27 -6.53,4.97 0,3.27 3.39,6.53 6.53,6.53 z m -8.12,206.47 v 0 c 3.41,0 4.98,-3.26 4.98,-4.83 0,-3.28 -1.57,-6.54 -4.98,-6.54 -3.4,0 -4.96,3.26 -4.96,6.54 0,1.57 1.56,4.83 4.96,4.83 z m 168.95,-283.48 h -114.81 c -8.1,0 -14.64,6.55 -14.64,13.08 v 31.12 c 0,11.51 8.1,23.01 19.6,27.85 3.15,1.7 6.55,6.66 4.99,9.81 l -11.51,29.55 c -1.83,3.26 0,6.53 3.4,6.53 l 88.38,36.09 c 1.83,0 4.98,3.28 4.98,4.98 1.56,3.26 1.56,6.53 1.56,9.8 -3.13,4.96 -9.67,8.11 -14.65,6.54 l -138.06,-54.14 c -4.71,-1.56 -6.29,-6.54 -6.29,-9.8 l 3.14,-4.84 c 0,-3.4 0,-4.97 -1.56,-6.66 -1.58,-1.58 -3.41,-1.58 -4.98,-1.58 -13.07,1.58 -36.08,11.51 -44.45,50.74 -11.25,55.7 39.49,81.98 65.89,91.79 3.15,1.7 6.28,1.7 9.68,0 1.83,-1.58 4.97,-3.28 4.97,-6.54 l -3.14,-3.27 c -1.83,0 -3.4,-1.57 -1.83,-3.27 0,-1.57 1.83,-1.57 3.41,-1.57 0,0 0,0 1.56,0 l 3.4,1.57 c 3.15,-4.84 9.68,-9.81 14.65,-11.37 v -4.98 c 0,-3.26 0,-4.96 3.4,-4.96 v 0 c 1.56,0 3.13,1.7 3.13,3.26 v 4.98 c 3.41,-1.7 4.97,-1.7 6.81,-1.7 4.71,0 8.11,1.7 11.24,3.4 l 3.4,-6.68 c 0,0 1.57,-1.56 3.4,-1.56 0,0 0,0 1.57,1.56 1.56,0 1.56,1.7 1.56,3.28 l -3.13,6.53 c 4.7,3.4 8.11,8.24 11.24,13.21 l 3.41,-3.27 c 1.57,0 1.57,0 1.57,0 1.82,0 3.4,1.57 3.4,1.57 1.56,1.7 0,4.97 -1.58,4.97 l -4.97,3.26 c 0,1.58 1.58,4.98 1.58,6.54 0,4.97 -1.58,8.25 -3.41,13.08 l 3.41,1.7 c 1.57,0 3.39,3.27 1.57,4.83 -1.57,1.7 -3.15,1.7 -4.98,1.7 l -3.13,-3.26 c -1.83,3.26 -4.98,6.54 -8.11,8.24 -1.83,1.57 -1.83,3.26 -3.4,4.83 l -39.48,85.25 c -3.15,6.54 -11.52,9.82 -18.05,6.54 -1.57,0 -4.97,0 -6.54,3.28 l -6.55,16.47 c -3.4,4.84 -8.1,6.54 -13.06,4.84 -6.8,-3.28 -8.37,-9.81 -4.97,-14.78 l 6.53,-14.65 c 0,-1.7 0,-1.7 0,-3.4 0,-1.56 -1.56,-1.56 -1.56,-3.26 -4.97,-1.57 -6.8,-3.27 -8.37,-6.54 -1.57,-4.84 -1.57,-8.24 0,-11.37 l 11.5,-26.29 c 1.83,-4.83 0,-9.8 -3.13,-11.5 -32.95,-14.78 -101.73,-57.27 -83.69,-152.46 8.1,-47.47 32.69,-68.78 54.14,-80.29 11.5,-4.83 18.04,-14.77 18.04,-27.85 v -26.15 c 0,-8.23 -6.54,-13.21 -13.34,-13.21 h -31.12 c -3.13,0 -8.11,-4.84 -8.11,-8.24 v -16.33 h 254.46 v 14.76 c 0,4.97 -3.41,8.24 -8.37,8.24 v 0"
         style="fill:#706d6e;fill-opacity:1;fill-rule:nonzero;stroke:none"
         transform="matrix(0.13333333,0,0,-0.13333333,0,1066.6667)" /><path
         id="path24"
         d="m 6075.49,3392.64 v 0 c 14.65,0 27.71,-13.07 27.71,-27.85 0,-16.35 -13.06,-29.42 -27.71,-29.42 -16.48,0 -29.55,13.07 -29.55,29.42 0,14.78 13.07,27.85 29.55,27.85 z m 0,-67.21 v 0 c -21.45,0 -39.49,18.05 -39.49,39.36 0,19.61 18.04,37.65 39.49,37.65 19.61,0 37.65,-18.04 37.65,-37.65 0,-21.31 -18.04,-39.36 -37.65,-39.36 z m 57.54,39.36 c 0,31.12 -26.43,57.4 -57.54,57.4 -32.95,0 -59.1,-26.28 -59.1,-57.4 0,-29.42 21.18,-52.44 49.16,-57.27 v -60.8 c 0,-47.46 -39.22,-85.13 -86.82,-85.13 -46.03,0 -85.52,37.67 -85.52,85.13 v 68.9 c 23.02,3.27 44.47,16.35 64.08,39.36 3.39,3.27 4.96,6.54 3.39,11.5 26.16,32.7 40.8,78.6 40.8,114.68 0,54.13 -24.59,58.98 -63.8,68.91 -3.4,4.83 -8.38,8.11 -13.09,8.11 -9.93,0 -16.46,-6.54 -16.46,-14.78 0,-8.11 6.53,-16.35 16.46,-16.35 3.14,0 6.28,1.7 8.11,4.98 v 0 c 39.23,-9.94 50.74,-11.51 50.74,-50.87 0,-31.12 -14.65,-72.04 -37.66,-103.29 -3.14,0 -6.54,-1.58 -9.94,-4.84 -11.25,-13.21 -29.55,-27.85 -50.73,-27.85 -21.45,0 -41.07,14.64 -52.57,27.85 -1.56,3.26 -6.53,4.84 -9.93,4.84 -23.02,29.55 -36.09,72.17 -36.09,103.29 0,39.36 9.94,40.93 49.16,50.87 3.4,-3.28 4.96,-4.98 9.95,-4.98 8.1,0 14.9,8.24 14.9,16.35 0,8.24 -6.8,14.78 -14.9,14.78 -6.55,0 -11.52,-3.28 -14.65,-8.11 -39.5,-9.93 -64.08,-14.78 -64.08,-68.91 0,-36.08 14.64,-81.98 41.06,-114.68 0,-4.96 0,-8.23 3.41,-11.5 19.61,-23.01 40.79,-36.09 63.81,-39.36 v -68.9 c 0,-57.28 46.01,-104.86 105.11,-104.86 57.28,0 103.3,47.58 103.3,104.86 v 60.8 c 27.99,4.83 49.44,27.85 49.44,57.27 v 0"
         style="fill:#706d6e;fill-opacity:1;fill-rule:nonzero;stroke:none"
         transform="matrix(0.13333333,0,0,-0.13333333,0,1066.6667)" /><path
         id="path25"
         d="m 4623.31,3302.55 v 0 l 106.7,-136.12 c 31.12,31.25 36.08,80.29 9.93,116.37 -27.98,34.52 -77.14,42.63 -116.63,19.75 z m 32.96,68.78 v 0 l 80.54,-62.25 c 14.65,-11.5 32.68,-14.76 50.73,-13.2 18.05,3.4 34.52,13.2 44.2,26.29 l 3.4,4.96 c 13.07,18.05 18.04,40.93 9.94,62.24 -3.4,13.07 -11.51,24.59 -23.02,32.82 l -80.55,62.24 z m -91.8,160.7 v 0 l -4.97,-4.98 c -13.33,-18.04 -16.47,-40.92 -9.93,-62.23 4.96,-13.21 13.07,-24.59 23.01,-32.83 l 75.31,-55.7 83.69,113.1 -73.75,55.71 c -29.55,22.89 -72.18,16.35 -93.36,-13.07 z M 4455.94,3273 v 0 l 157.69,65.63 c -21.44,39.24 -69.03,57.28 -108.26,40.94 -42.89,-18.05 -62.5,-63.95 -49.43,-106.57 z m 257.6,-118.08 v 0 c -37.66,-22.88 -86.82,-14.64 -114.81,19.75 -26.15,36.09 -21.18,85.25 9.94,116.37 z m -103.31,145.93 -4.96,-6.53 c -21.19,-19.62 -32.69,-49.17 -29.55,-77.03 -1.57,0 -3.14,0 -3.14,-1.69 -41.06,-16.34 -88.65,1.69 -110.1,39.36 l 157.7,67.21 c 1.56,-4.85 3.13,-8.24 3.13,-13.09 0,0 -1.57,0 -3.13,-1.56 l -4.97,-3.4 -4.98,-3.27"
         style="fill:#706d6e;fill-opacity:1;fill-rule:evenodd;stroke:none"
         transform="matrix(0.13333333,0,0,-0.13333333,0,1066.6667)" /><path
         id="path26"
         d="m 3351.84,3276.27 v 0 c -40.8,0 -73.74,32.81 -73.74,72.17 0,40.93 32.94,73.75 73.74,73.75 39.49,0 72.44,-32.82 72.44,-73.75 0,-39.36 -32.95,-72.17 -72.44,-72.17 z m 0,173.77 v 0 c -55.7,0 -99.9,-45.9 -99.9,-101.6 0,-54.12 44.2,-100.02 99.9,-100.02 55.97,0 100.16,45.9 100.16,100.02 0,55.7 -44.19,101.6 -100.16,101.6 z m 27.98,-68.77 v 0 c 1.57,1.56 3.4,3.13 6.54,3.13 3.4,0 4.97,-1.57 6.54,-3.13 l 6.54,-4.98 c 3.4,-3.26 3.4,-9.81 0,-14.77 l -50.73,-54 c -3.41,-1.7 -4.97,-3.4 -8.11,-3.4 -1.84,0 -5.23,1.7 -6.8,3.4 l -29.29,29.41 c -3.4,3.28 -3.4,9.81 0,14.79 l 4.7,4.83 c 1.83,1.7 4.97,3.27 6.54,3.27 3.41,0 6.8,-1.57 8.37,-3.27 l 16.48,-16.34 z m 9.94,-200.06 v 0 c -4.97,-6.54 -13.08,-8.24 -19.87,-4.97 l -177.05,103.29 c -6.54,3.27 -9.93,13.09 -4.96,19.75 l 123.16,213.01 c 3.14,6.53 11.51,8.23 19.62,4.96 l 23.01,-13.07 c -4.96,-6.68 -1.83,-16.48 4.97,-19.75 l 106.7,-60.67 c 6.28,-4.83 14.64,-1.57 18.04,4.97 l 24.58,-14.77 c 6.54,-3.28 9.68,-11.52 4.71,-18.05 z m 50.73,354.08 v 0 c 4.97,9.81 18.05,13.08 27.99,6.55 8.1,-4.97 11.5,-18.05 6.53,-27.86 -3.39,-4.97 -8.1,-8.24 -13.07,-9.8 l -23.01,13.07 c -1.57,6.54 -1.57,11.5 1.56,18.04 z m 57.54,-83.68 4.97,9.93 c 4.96,8.11 1.57,17.92 -4.97,22.89 l -21.45,11.51 c 3.4,3.26 6.8,6.54 9.94,11.37 9.94,16.48 4.97,37.79 -11.51,46.03 -16.47,9.8 -37.65,4.84 -47.59,-11.5 -1.57,-4.97 -3.14,-9.81 -3.14,-14.79 l -29.55,14.79 c -6.8,4.96 -18.05,3.26 -21.44,-4.97 l -6.54,-9.82 -36.09,21.32 c -13.34,6.53 -29.55,3.27 -36.09,-9.81 l -137.82,-239.28 c -8.37,-13.21 -3.4,-29.55 9.68,-36.09 l 203.46,-118.07 c 11.5,-6.55 27.98,-1.57 36.09,9.8 l 138.07,239.42 c 8.11,13.08 3.14,29.42 -9.93,35.95 l -36.09,21.32"
         style="fill:#706d6e;fill-opacity:1;fill-rule:nonzero;stroke:none"
         transform="matrix(0.13333333,0,0,-0.13333333,0,1066.6667)" /><path
         id="path27"
         d="m 7107.41,4635.34 v 0 l 126.32,-127.87 -39.24,-39.36 c -34.51,-34.39 -91.78,-34.39 -126.31,0 -36.08,35.96 -36.08,91.79 0,127.74 z m 285.58,31.12 v 0 l -127.89,126.18 39.24,39.36 c 36.08,34.39 92.05,34.39 128.13,0 34.52,-34.52 34.52,-91.79 0,-127.88 z M 7416,4484.45 v 0 c -6.55,-4.84 -16.48,-4.84 -21.45,0 -6.53,6.54 -6.53,16.48 0,21.32 4.97,6.53 14.9,6.53 21.45,0 4.97,-4.84 4.97,-14.78 0,-21.32 z m -37.66,50.87 v 0 c -6.54,4.83 -6.54,14.77 0,21.31 4.71,6.54 14.65,6.54 21.18,0 4.97,-6.54 4.97,-16.48 0,-21.31 -6.53,-4.97 -16.47,-4.97 -21.18,0 z m -18.05,50.73 v 0 c -4.96,4.97 -4.96,14.78 0,21.45 6.55,4.83 16.21,4.83 21.19,0 6.54,-6.67 6.54,-16.48 0,-21.45 -4.98,-6.54 -14.64,-6.54 -21.19,0 z m 4.71,-83.55 v 0 c -4.71,-6.54 -14.65,-6.54 -21.18,0 -4.97,4.97 -4.97,14.77 0,19.61 6.53,6.67 16.47,6.67 21.18,0 6.8,-4.84 6.8,-14.64 0,-19.61 z m -37.66,49.16 v 0 c -4.96,6.54 -4.96,16.34 0,21.31 4.97,6.54 14.91,6.54 21.45,0 4.96,-4.97 4.96,-14.77 0,-21.31 -6.54,-4.97 -16.48,-4.97 -21.45,0 z m -13.07,-32.82 v 0 c -4.97,-6.54 -14.9,-6.54 -19.88,0 -6.26,4.97 -6.26,14.78 0,21.31 4.98,4.97 14.91,4.97 19.88,0 6.53,-6.53 6.53,-16.34 0,-21.31 z m -96.76,70.48 v 0 l -29.55,29.55 c -24.58,24.58 -24.58,67.21 0,91.79 26.15,26.28 68.78,26.28 93.36,0 l 29.55,-27.85 c 26.42,-26.28 26.42,-67.21 0,-93.49 -26.15,-26.15 -67.21,-26.15 -93.36,0 z M 7151.88,4727 v 0 c -6.8,6.54 -6.8,16.48 0,21.32 4.96,6.67 14.63,6.67 21.17,0 4.98,-4.84 4.98,-14.78 0,-21.32 -6.54,-4.83 -16.21,-4.83 -21.17,0 z m -16.49,50.87 v 0 c -6.53,6.53 -6.53,14.77 0,21.31 4.97,4.97 14.65,4.97 21.45,0 4.7,-6.54 4.7,-14.78 0,-21.31 -6.8,-6.54 -16.48,-6.54 -21.45,0 z m 3.4,-83.55 v 0 c -4.96,-6.54 -14.9,-6.54 -21.45,0 -4.96,6.53 -4.96,14.77 0,21.31 6.55,4.83 16.49,4.83 21.45,0 6.29,-6.54 6.29,-14.78 0,-21.31 z m -37.91,50.73 v 0 c -4.97,4.96 -4.97,14.77 0,21.31 6.53,4.97 14.64,4.97 21.44,0 6.54,-6.54 6.54,-16.35 0,-21.31 -6.8,-6.54 -14.91,-6.54 -21.44,0 z m -16.49,49.16 v 0 c -6.53,6.67 -6.53,16.48 0,21.32 6.55,6.54 14.92,6.54 21.45,0 4.97,-4.84 4.97,-14.65 0,-21.32 -6.53,-4.84 -14.9,-4.84 -21.45,0 z m 100.17,-11.37 v 0 c 6.53,4.84 16.48,4.84 21.44,0 6.54,-6.67 6.54,-16.48 0,-21.32 -4.96,-6.53 -14.91,-6.53 -21.44,0 -4.97,4.84 -4.97,14.65 0,21.32 z m 9.93,49.16 c -34.51,34.39 -91.78,34.39 -126.31,0 -36.08,-34.52 -36.08,-91.79 0,-127.88 l 236.16,-236.01 c 36.08,-34.39 92.05,-34.39 128.13,0 34.52,35.96 34.52,91.79 0,127.74 L 7194.49,4832"
         style="fill:#706d6e;fill-opacity:1;fill-rule:evenodd;stroke:none"
         transform="matrix(0.13333333,0,0,-0.13333333,0,1066.6667)" /><g
         id="g2"
         inkscape:export-filename="g2.svg"
         inkscape:export-xdpi="96"
         inkscape:export-ydpi="96"><path
           id="path28"
           d="m 5949.18,4464.84 c -311.72,168.8 -211.56,370.43 -96.76,372 v 0 c 34.51,0 70.61,-18.05 96.76,-62.24 26.41,44.19 62.5,62.24 97.01,62.24 h 1.58 c 113.23,-1.57 213.39,-203.2 -98.59,-372 v 0"
           style="fill:#706d6e;fill-opacity:1;fill-rule:evenodd;stroke:none"
           transform="matrix(0.13333333,0,0,-0.13333333,0,1066.6667)" /></g><path
         id="path29"
         d="m 4483.93,4653.26 v 0 c 21.44,-49.17 70.6,-103.17 166.05,-155.6 93.36,52.43 142.53,106.43 163.98,155.6 11.5,27.98 14.63,54.13 9.67,75.45 -3.14,21.3 -13.07,39.35 -26.15,54.13 -16.47,14.64 -37.66,24.45 -57.27,24.45 h -1.83 v 0 c -13.08,0 -27.72,-3.14 -41.06,-11.38 -13.08,-8.23 -24.59,-19.74 -36.09,-37.79 l -11.25,-21.18 -14.9,21.18 c -9.94,18.05 -21.18,29.56 -34.51,37.79 -13.09,8.24 -27.99,11.38 -41.07,11.38 h -1.57 c -21.45,0 -41.05,-9.81 -57.53,-24.45 -13.08,-14.78 -22.74,-32.83 -26.14,-54.13 -4.98,-21.32 -1.58,-47.47 9.67,-75.45 z m 157.69,-188.42 c -105.14,58.97 -162.4,119.64 -186.98,176.91 -13.34,32.82 -16.48,63.94 -11.51,91.79 4.7,27.98 18.04,52.56 36.09,70.61 21.18,21.18 49.16,34.39 78.71,34.39 v 0 h 1.57 c 19.88,0 39.49,-4.97 57.53,-16.47 11.51,-6.54 21.19,-16.35 32.95,-27.86 8.12,11.51 19.62,21.32 30.86,27.86 18.31,11.5 37.93,16.47 57.54,16.47 h 1.83 v 0 c 29.28,0 57.27,-13.21 78.72,-34.39 18.04,-18.05 31.11,-42.63 36.08,-70.61 4.97,-27.85 1.57,-58.97 -11.5,-91.79 -24.58,-57.27 -82.12,-117.94 -187.24,-176.91 l -6.29,-3.27 -8.36,3.27"
         style="fill:#706d6e;fill-opacity:1;fill-rule:nonzero;stroke:none"
         transform="matrix(0.13333333,0,0,-0.13333333,0,1066.6667)" /><path
         id="path30"
         d="m 3232.33,4663.19 v 0 l 24.58,96.63 h 24.58 l 44.46,-168.8 18.04,62.24 11.25,9.93 h 42.89 l 26.15,96.63 h 23.01 l 26.16,-96.63 h 75.57 c 6.54,16.35 9.94,34.39 9.94,52.44 0,70.47 -54.14,126.18 -121.6,126.18 -34.52,0 -65.64,-14.78 -86.83,-40.93 -23.01,26.15 -54.39,40.93 -88.65,40.93 -65.9,0 -120.03,-55.71 -120.03,-126.18 0,-18.05 3.4,-36.09 8.36,-52.44 z m 233.01,-24.58 h 75.57 c -50.99,-108.26 -190.38,-180.44 -190.38,-180.44 0,0 -139.64,72.18 -190.64,180.44 h 80.55 l 11.5,8.11 18.05,63.94 44.19,-170.51 h 24.85 l 26.15,98.46 h 42.63 l 11.5,8.11 16.48,63.94 16.47,-63.94 13.08,-8.11"
         style="fill:#706d6e;fill-opacity:1;fill-rule:nonzero;stroke:none"
         transform="matrix(0.13333333,0,0,-0.13333333,0,1066.6667)" /><path
         id="path31"
         d="m 2226.56,4486.15 v 0 l -50.73,119.64 c -6.81,13.08 -21.45,21.31 -36.09,18.05 l -103.56,-24.58 v 111.4 c 0,18.05 -14.65,32.82 -32.69,32.82 -16.48,0 -31.39,-14.77 -31.39,-32.82 V 4559.9 c 0,-9.81 4.98,-18.04 11.77,-24.58 8.11,-4.97 18.05,-8.24 27.72,-6.54 l 116.64,27.85 40.79,-95.06 c 5.23,-13.21 16.48,-19.74 27.99,-19.74 4.96,0 9.93,1.7 13.33,3.26 16.22,6.54 22.76,24.71 16.22,41.06 z m -163.97,322.84 v 0 c 0,27.85 -23.01,49.16 -49.43,49.16 -27.72,0 -49.16,-21.31 -49.16,-49.16 0,-26.15 21.44,-49.17 49.16,-49.17 26.42,0 49.43,23.02 49.43,49.17 z m 27.72,-293.42 c 9.93,1.7 19.88,3.27 29.81,4.97 1.57,-3.27 3.14,-6.54 4.71,-11.51 -24.59,-37.65 -67.21,-63.94 -116.64,-63.94 -75.31,0 -137.55,62.38 -137.55,137.69 0,54.13 32.69,98.46 75.31,121.34 v -36.09 c -24.58,-19.61 -44.19,-50.73 -44.19,-85.25 0,-58.97 47.6,-106.56 106.43,-106.56 32.95,0 64.08,14.77 82.12,39.35 v 0"
         style="fill:#706d6e;fill-opacity:1;fill-rule:nonzero;stroke:none"
         transform="matrix(0.13333333,0,0,-0.13333333,0,1066.6667)" /><path
         id="path32"
         d="m 819.102,4600.83 v 0 0 l 101.726,-1.57 c 8.11,-1.71 13.074,-8.24 13.074,-14.78 0,-9.81 -6.535,-14.78 -14.644,-14.78 l -101.988,1.71 c -8.11,1.56 -13.075,8.1 -13.075,16.34 0,6.54 6.535,13.08 14.907,13.08 z m -41.059,-14.78 v 0 c 0,-49.17 39.227,-90.09 90.219,-91.79 49.164,0 90.222,39.36 91.793,90.22 0,49.16 -39.227,90.09 -90.219,90.09 -49.168,1.7 -90.227,-37.66 -91.793,-88.52 z m -105.129,163.96 v 0 c 9.938,16.35 29.551,26.16 49.164,26.16 11.508,0 23.016,-3.14 31.121,-9.81 13.34,-8.24 23.278,-22.88 26.41,-37.65 1.575,-14.78 0,-31.13 -9.937,-44.33 l -36.086,-52.44 c -4.707,-8.1 -16.477,-9.8 -24.582,-4.84 l -67.207,45.9 c -4.973,3.27 -6.539,6.54 -8.109,11.38 0,4.97 0,9.94 3.136,13.2 z m -54.129,-201.62 v 0 c 1.567,0 21.18,-3.27 37.656,19.61 l 23.012,36.09 c 3.399,4.97 8.367,6.54 11.504,6.54 3.402,0 6.539,-1.57 9.941,-3.13 6.54,-3.41 8.106,-13.21 3.133,-19.75 l -24.578,-36.09 c -27.719,-40.93 -67.207,-31.12 -68.777,-31.12 -8.371,3.27 -11.504,11.51 -9.938,18.04 1.567,8.11 9.938,13.08 18.047,9.81 z m -73.75,19.61 c 3.141,-22.88 16.473,-44.19 36.086,-57.27 14.645,-9.8 32.692,-14.77 49.168,-14.77 29.551,0 57.531,14.77 73.742,39.36 l 90.485,132.71 c 13.078,19.75 18.047,42.63 13.078,67.21 -4.965,22.88 -18.309,42.63 -37.922,55.7 -13.074,9.94 -31.117,14.78 -47.594,14.78 -29.551,0 -57.269,-14.78 -73.742,-39.36 L 558.109,4633.64 C 545.035,4613.9 540.066,4591.02 545.035,4568 v 0"
         style="fill:#706d6e;fill-opacity:1;fill-rule:nonzero;stroke:none"
         transform="matrix(0.13333333,0,0,-0.13333333,0,1066.6667)" /><path
         id="path33"
         d="m 7131.99,5961.47 26.15,98.33 h 23.01 l 46.04,-170.51 16.35,63.94 11.5,8.24 h 42.62 l 26.29,98.33 h 24.58 l 26.27,-98.33 h 75.59 c 4.83,18.05 8.23,36.09 8.23,54.14 0,70.47 -54.26,126.17 -120.03,126.17 -34.39,0 -65.5,-16.47 -88.52,-40.93 -21.32,24.46 -52.57,40.93 -88.65,40.93 -65.51,0 -119.78,-55.7 -119.78,-126.17 0,-18.05 3.27,-36.09 8.24,-54.14 z m 233.01,-22.88 -11.5,8.1 -18.05,63.94 -16.48,-63.94 -11.37,-8.1 h -42.76 l -26.15,-98.46 h -23.14 l -45.9,170.5 -16.34,-63.94 -13.21,-8.1 h -80.41 c 50.86,-109.84 190.38,-180.45 190.38,-180.45 0,0 139.52,70.61 190.38,180.45 H 7365"
         style="fill:#706d6e;fill-opacity:1;fill-rule:evenodd;stroke:none"
         transform="matrix(0.13333333,0,0,-0.13333333,0,1066.6667)" /><path
         id="path34"
         d="m 5949.04,5969.58 c 44.2,0 78.72,-34.26 78.72,-77.02 0,-44.2 -34.52,-78.58 -78.72,-78.58 -42.75,0 -77.27,34.38 -77.27,78.58 0,42.76 34.52,77.02 77.27,77.02 z m -196.91,47.59 h 395.54 c 4.83,0 9.67,-4.84 9.67,-11.51 v -229.47 c 0,-4.84 -4.84,-9.81 -9.67,-9.81 h -395.54 c -6.67,0 -11.5,4.97 -11.5,9.81 v 229.47 c 0,6.67 4.83,11.51 11.5,11.51 z m 78.71,116.37 h 237.98 c 3.27,0 4.97,-1.56 4.97,-6.53 v -103.3 h -19.75 v 86.95 c 0,1.57 -1.7,4.84 -3.26,4.84 h -201.89 c -3.26,0 -4.85,-3.27 -4.85,-4.84 v -86.95 h -19.73 v 103.3 c 0,4.97 3.27,6.53 6.53,6.53 z m 111.54,-201.62 h 13.21 v -34.39 h 34.38 v -11.5 h -34.38 v -34.39 h -13.21 v 34.39 h -34.39 v 11.5 h 34.39 z m 6.66,31.25 c 39.36,0 72.19,-31.25 72.19,-70.61 0,-40.92 -32.83,-72.04 -72.19,-72.04 -39.48,0 -70.6,31.12 -70.6,72.04 0,39.36 31.12,70.61 70.6,70.61 v 0"
         style="fill:#706d6e;fill-opacity:1;fill-rule:evenodd;stroke:none"
         transform="matrix(0.13333333,0,0,-0.13333333,0,1066.6667)" /><path
         id="path35"
         d="m 4800.62,5892.56 v 0 h -47.59 v -47.46 h -37.8 v 47.46 h -47.59 v 37.79 h 47.59 v 47.47 h 37.8 v -47.47 h 47.59 z m -200.19,204.9 v 0 h 100.16 v -47.47 h -100.16 z m 195.21,-47.47 h -65.63 v 77.02 h -159.13 v -77.02 h -64.07 c -34.52,0 -64.08,-27.85 -64.08,-63.94 v -147.49 c 0,-36.09 29.56,-65.64 64.08,-65.64 h 288.83 c 34.53,0 64.08,29.55 64.08,65.64 v 147.49 c 0,36.09 -29.55,63.94 -64.08,63.94 v 0"
         style="fill:#706d6e;fill-opacity:1;fill-rule:evenodd;stroke:none"
         transform="matrix(0.13333333,0,0,-0.13333333,0,1066.6667)" /><path
         id="path36"
         d="m 3214.16,5925.38 c 22.88,0 42.62,18.05 42.62,39.36 0,21.31 -19.74,37.66 -42.62,37.66 -21.45,0 -41.19,-16.35 -41.19,-37.66 0,-21.31 19.74,-39.36 41.19,-39.36 z m 218.23,-9.8 c 23.01,3.26 47.59,16.34 68.9,39.35 3.28,3.27 3.28,6.54 3.28,11.51 27.85,32.69 44.32,78.58 44.32,112.97 0,55.83 -26.28,60.67 -70.61,70.61 v 0 c -1.57,4.84 -6.54,8.1 -13.07,8.1 -9.81,0 -18.05,-6.53 -18.05,-14.77 0,-8.11 8.24,-16.34 18.05,-16.34 3.27,0 6.53,1.7 8.24,3.27 h 1.56 c 41.06,-8.24 52.57,-11.51 52.57,-50.87 0,-29.42 -14.78,-72.04 -39.36,-101.59 -4.97,0 -8.24,-1.57 -11.51,-4.84 -11.5,-13.21 -31.25,-29.55 -54.26,-29.55 -24.58,0 -44.19,16.34 -55.7,29.55 -3.4,3.27 -6.54,4.84 -11.51,4.84 -23.01,29.55 -39.49,72.17 -39.49,101.59 0,39.36 11.51,42.63 52.57,50.87 v 0 c 3.27,-1.57 6.67,-3.27 11.5,-3.27 8.24,0 16.48,8.23 16.48,16.34 0,8.24 -8.24,14.77 -16.48,14.77 -6.53,0 -13.07,-3.26 -14.77,-8.1 v 0 c -44.2,-9.94 -70.48,-14.78 -70.48,-70.61 0,-34.39 16.34,-80.28 44.33,-114.67 0,-3.27 1.56,-8.24 3.27,-11.51 21.18,-21.31 44.19,-34.39 67.21,-37.65 v -68.91 c 0,-47.47 -41.06,-85.13 -91.93,-85.13 -50.73,0 -91.92,37.66 -91.92,85.13 v 60.8 c 29.55,4.83 51,27.85 51,57.27 0,31.12 -27.85,57.4 -62.37,57.4 -32.82,0 -62.37,-26.28 -62.37,-57.4 0,-29.42 22.88,-52.44 52.43,-57.27 v -60.8 c 0,-57.28 50.86,-104.87 113.23,-104.87 62.37,0 113.37,47.59 113.37,104.87 v 68.91 h 1.57"
         style="fill:#706d6e;fill-opacity:1;fill-rule:evenodd;stroke:none"
         transform="matrix(0.13333333,0,0,-0.13333333,0,1066.6667)" /><g
         id="g3"
         style="stroke-width:1.00157;stroke-dasharray:none"><path
           id="path37"
           d="m 2192.04,6076.27 c -1.7,14.78 -9.94,32.82 -16.48,41.06 -6.54,9.81 -21.31,16.35 -31.12,17.91 -3.4,1.7 -8.23,1.7 -14.77,1.7 v 0 c -9.81,0 -19.75,0 -27.85,-1.7 l -52.57,-6.53 -50.99,6.53 c -8.11,1.7 -19.62,1.7 -27.85,1.7 h -1.57 c -4.97,0 -9.81,0 -14.78,-1.7 -8.23,-1.56 -23.01,-8.1 -29.55,-17.91 -8.24,-8.24 -16.47,-26.28 -16.47,-41.06 0,-4.97 0,-8.23 0,-13.07 v -1.7 c 0,-26.15 3.4,-58.97 18.04,-90.09 0,0 13.21,-26.28 13.21,-68.91 0,-31.12 13.07,-98.33 27.85,-127.88 6.54,-13.08 26.28,-11.38 31.12,3.4 14.9,49.16 24.71,149.06 50.99,149.06 27.85,0 37.66,-99.9 52.57,-149.06 3.13,-14.78 24.58,-16.48 31.11,-3.4 14.78,29.55 26.16,96.76 26.16,127.88 0,42.63 13.2,68.91 13.2,68.91 19.75,37.66 21.32,78.58 19.75,104.86 v 0"
           style="fill:#706d6e;fill-opacity:1;fill-rule:evenodd;stroke:none;stroke-width:7.51181;stroke-dasharray:none"
           transform="matrix(0.13333333,0,0,-0.13333333,0,1066.6667)" /></g><path
         id="path38"
         d="m 771.246,6015.61 c 0,8.23 3.133,14.77 9.805,14.77 4.84,0 9.804,-6.54 9.804,-14.77 0,-8.11 -4.964,-14.78 -9.804,-14.78 -6.672,0 -9.805,6.67 -9.805,14.78 z m -29.551,-26.16 c -11.507,0 -19.746,11.38 -19.746,27.85 0,16.35 8.239,27.86 19.746,27.86 9.805,0 19.61,-11.51 19.61,-27.86 0,-16.47 -9.805,-27.85 -19.61,-27.85 z m 14.645,-24.58 c 0,-11.51 -4.84,-19.74 -13.078,-19.74 -6.539,0 -13.074,8.23 -13.074,19.74 0,9.81 6.535,18.05 13.074,18.05 8.238,0 13.078,-8.24 13.078,-18.05 z m 24.711,-27.85 c 0,-26.28 -27.852,-26.28 -27.852,0 0,11.37 6.535,21.18 14.645,21.18 6.535,0 13.207,-9.81 13.207,-21.18 z m -60.801,21.18 c 0,-8.11 -4.973,-14.65 -11.379,-14.65 -4.965,0 -9.933,6.54 -9.933,14.65 0,8.24 4.968,14.78 9.933,14.78 6.406,0 11.379,-6.54 11.379,-14.78 z m 185.543,-122.91 c -6.672,11.51 -19.746,34.52 -34.523,55.83 -3.266,4.84 -6.54,9.81 -9.805,14.65 H 638.266 c -3.27,-4.84 -6.536,-9.81 -9.809,-14.65 -14.906,-21.31 -27.984,-44.32 -34.516,-55.83 l -1.574,-1.57 c -4.965,-11.5 -4.965,-26.28 0,-36.09 4.84,-8.24 11.379,-11.5 21.184,-11.5 h 272.496 c 8.109,0 16.476,3.26 21.312,11.5 4.969,9.81 4.969,24.59 -1.566,36.09 z m 14.773,-45.9 c -4.968,-6.53 -9.937,-9.8 -16.472,-9.8 H 595.508 c -6.539,0 -11.375,3.27 -16.344,9.8 -4.84,9.94 -4.84,26.29 1.699,37.79 l 1.571,4.84 c 9.933,18.05 32.816,57.4 57.531,91.79 6.539,13.21 14.644,23.02 22.883,32.82 19.746,27.85 31.25,42.63 29.55,55.7 0,23.02 0,77.15 0,100.03 h 114.938 c 0,-22.88 0,-77.01 0,-100.03 -1.707,-13.07 9.805,-27.85 29.551,-55.7 8.101,-9.8 16.34,-19.61 22.879,-32.82 24.711,-34.39 47.593,-73.74 57.402,-91.79 l 1.699,-4.84 c 6.539,-11.5 6.539,-27.85 1.699,-37.79 z m 18.043,49.17 -3.398,4.97 c -9.805,16.47 -32.688,58.97 -55.703,93.49 -8.238,11.37 -16.477,22.88 -24.582,32.69 -11.504,16.34 -26.278,36.09 -26.278,42.62 1.567,24.59 0,86.96 0,105 h 14.774 v 27.85 H 649.77 v -27.85 h 21.316 c 0,-18.04 -1.699,-80.41 0,-105 0,-6.53 -14.777,-26.28 -26.281,-42.62 -8.242,-9.81 -16.348,-21.32 -24.586,-32.69 -23.012,-34.52 -47.59,-77.02 -57.531,-93.49 l -1.571,-4.97 c -9.804,-18.04 -9.804,-42.5 0,-60.54 6.539,-13.21 19.746,-19.74 34.391,-19.74 h 308.586 c 14.773,0 27.98,6.53 34.515,19.74 9.809,18.04 9.809,42.5 0,60.54 z m -157.558,141.08 c 0,-6.66 -1.699,-9.93 -6.672,-9.93 -3.133,0 -6.535,3.27 -6.535,9.93 0,4.84 3.402,9.81 6.535,9.81 4.973,0 6.672,-4.97 6.672,-9.81 v 0"
         style="fill:#706d6e;fill-opacity:1;fill-rule:evenodd;stroke:none"
         transform="matrix(0.13333333,0,0,-0.13333333,0,1066.6667)" /><path
         id="path39"
         d="m 7350.1,7112.38 h -200.2 v 267.14 h 55.84 v -1.57 c 0,-4.97 3.15,-8.24 6.55,-8.24 h 75.43 c 3.28,0 6.67,3.27 6.67,8.24 v 1.57 h 55.71 z m -129.71,154.04 c 0,9.8 -8.1,16.47 -18.05,16.47 -8.1,0 -16.34,-6.67 -16.34,-16.47 0,-9.81 8.24,-18.05 16.34,-18.05 9.95,0 18.05,8.24 18.05,18.05 z m 82.11,9.8 h -60.66 c -4.98,0 -9.95,-4.84 -9.95,-9.8 0,-4.84 4.97,-9.81 9.95,-9.81 h 60.66 c 4.97,0 9.94,4.97 9.94,9.81 0,4.96 -4.97,9.8 -9.94,9.8 z m -82.11,-62.24 c 0,9.81 -8.1,16.35 -18.05,16.35 -8.1,0 -16.34,-6.54 -16.34,-16.35 0,-9.8 8.24,-18.04 16.34,-18.04 9.95,0 18.05,8.24 18.05,18.04 z m 82.11,9.81 h -60.66 c -4.98,0 -9.95,-4.84 -9.95,-9.81 0,-4.96 4.97,-9.8 9.95,-9.8 h 60.66 c 4.97,0 9.94,4.84 9.94,9.8 0,4.97 -4.97,9.81 -9.94,9.81 z m -82.11,91.79 c 0,9.94 -8.1,16.47 -18.05,16.47 -8.1,0 -16.34,-6.53 -16.34,-16.47 0,-9.81 8.24,-18.04 16.34,-18.04 9.95,0 18.05,8.23 18.05,18.04 z m 0,-152.46 c 0,9.94 -8.1,16.47 -18.05,16.47 -8.1,0 -16.34,-6.53 -16.34,-16.47 0,-9.81 8.24,-17.91 16.34,-17.91 9.95,0 18.05,8.1 18.05,17.91 z m 82.11,9.94 h -60.66 c -4.98,0 -9.95,-4.97 -9.95,-9.94 0,-6.54 4.97,-9.81 9.95,-9.81 h 60.66 c 4.97,0 9.94,3.27 9.94,9.81 0,4.97 -4.97,9.94 -9.94,9.94 z m 0,152.46 h -60.66 c -4.98,0 -9.95,-4.97 -9.95,-9.94 0,-4.84 4.97,-9.81 9.95,-9.81 h 60.66 c 4.97,0 9.94,4.97 9.94,9.81 0,4.97 -4.97,9.94 -9.94,9.94 z m 49.16,73.74 h -57.27 v 3.27 c 0,3.27 -3.39,6.54 -6.67,6.54 h -75.43 c -3.4,0 -6.55,-3.27 -6.55,-6.54 v -3.27 h -57.54 c -9.8,0 -18.03,-8.24 -18.03,-18.05 v -270.53 c 0,-9.8 8.23,-18.04 18.03,-18.04 h 203.46 c 9.94,0 18.05,8.24 18.05,18.04 v 270.53 c 0,9.81 -8.11,18.05 -18.05,18.05 v 0"
         style="fill:#706d6e;fill-opacity:1;fill-rule:evenodd;stroke:none"
         transform="matrix(0.13333333,0,0,-0.13333333,0,1066.6667)" /><path
         id="path40"
         d="m 6055.61,7356.64 c -27.97,27.85 -64.07,44.19 -106.69,44.19 -41.07,0 -78.72,-16.34 -104.88,-44.19 -27.97,-26.28 -44.45,-63.94 -44.45,-104.87 0,-41.06 16.48,-78.71 44.45,-106.56 26.16,-26.29 63.81,-42.63 104.88,-42.63 42.62,0 78.72,16.34 106.69,42.63 26.28,27.85 44.46,65.5 44.46,106.56 0,40.93 -18.18,78.59 -44.46,104.87 z m -191.95,-60.67 c 24.58,0 46.03,-21.32 46.03,-45.9 0,-26.28 -21.45,-45.89 -46.03,-45.89 -26.28,0 -46.02,19.61 -46.02,45.89 0,24.58 19.74,45.9 46.02,45.9 z m 68.92,86.82 c 11.5,0 19.73,-8.11 19.73,-19.61 0,-11.52 -8.23,-19.75 -19.73,-19.75 -11.52,0 -19.75,8.23 -19.75,19.75 0,11.5 8.23,19.61 19.75,19.61 z m 16.34,-185.15 c 21.44,0 39.48,-18.05 39.48,-41.06 0,-22.88 -18.04,-40.93 -39.48,-40.93 -23.02,0 -41.07,18.05 -41.07,40.93 0,23.01 18.05,41.06 41.07,41.06 z m 19.87,73.74 c 6.54,0 13.08,-4.96 13.08,-13.2 0,-8.11 -6.54,-13.08 -13.08,-13.08 -8.37,0 -14.9,4.97 -14.9,13.08 0,8.24 6.53,13.2 14.9,13.2 z m 50.74,49.17 c 4.96,0 8.11,-4.97 8.11,-9.81 0,-4.97 -3.15,-9.94 -8.11,-9.94 -4.98,0 -9.94,4.97 -9.94,9.94 0,4.84 4.96,9.81 9.94,9.81 z m 34.51,-50.87 c 18.05,0 32.7,-16.34 32.7,-34.39 0,-18.04 -14.65,-34.39 -32.7,-34.39 -19.61,0 -34.51,16.35 -34.51,34.39 0,18.05 14.9,34.39 34.51,34.39 z m -114.93,47.6 c 6.67,0 13.2,-4.97 13.2,-13.21 0,-8.1 -6.53,-14.64 -13.2,-14.64 -8.24,0 -14.77,6.54 -14.77,14.64 0,8.24 6.53,13.21 14.77,13.21 z m 9.81,104.86 c 47.58,0 90.35,-19.61 121.6,-49.16 31.12,-31.12 50.73,-73.75 50.73,-121.21 0,-47.59 -19.61,-90.22 -50.73,-121.34 -31.25,-31.12 -74.02,-49.16 -121.6,-49.16 -45.89,0 -88.53,18.04 -119.78,49.16 -31.11,31.12 -50.86,73.75 -50.86,121.34 0,47.46 19.75,90.09 50.86,121.21 31.25,29.55 73.89,49.16 119.78,49.16 v 0"
         style="fill:#706d6e;fill-opacity:1;fill-rule:nonzero;stroke:none"
         transform="matrix(0.13333333,0,0,-0.13333333,0,1066.6667)" /><path
         id="path41"
         d="m 4654.57,7148.34 -4.84,186.98 c 0,3.27 -1.84,6.54 -4.97,6.54 h -13.22 v 36.09 c 0,3.26 -3.26,6.54 -6.66,6.54 v 0 h -27.71 c -1.71,0 -3.41,-1.7 -4.98,-3.28 0,0 -1.56,-1.69 -1.56,-3.26 v -36.09 h -13.21 c -3.27,0 -4.98,-3.27 -6.68,-6.54 l -3.12,-186.98 z m -86.95,-22.88 6.53,-6.54 h 73.74 l 6.68,6.54 v 9.81 h -86.95 z m 132.84,131.15 v -136.12 c 0,-3.13 -3.27,-6.41 -6.53,-6.41 v 0 c -3.29,0 -6.55,3.28 -6.55,6.41 v 137.69 l 32.82,68.91 h -19.74 c -6.53,0 -11.51,4.96 -11.51,11.5 v 34.39 c 0,4.97 3.4,9.81 8.24,9.81 h 24.71 c 0,3.26 3.14,4.96 6.54,4.96 v 0 c 3.14,0 6.54,-1.7 6.54,-4.96 v -54 l -34.52,-72.18"
         style="fill:#706d6e;fill-opacity:1;fill-rule:evenodd;stroke:none"
         transform="matrix(0.13333333,0,0,-0.13333333,0,1066.6667)" /><path
         id="path42"
         d="m 3502.87,7187.83 c 9.8,-4.97 18.04,-16.48 18.04,-29.55 0,-18.05 -14.78,-34.39 -34.39,-34.39 -18.04,0 -32.95,16.34 -32.95,34.39 0,13.07 6.54,24.58 18.05,29.55 v 35.96 H 3230.5 v -35.96 c 9.81,-6.67 16.35,-18.04 16.35,-29.55 0,-18.05 -14.78,-34.39 -34.39,-34.39 -18.05,0 -32.95,16.34 -32.95,34.39 0,13.07 8.37,24.58 19.74,29.55 v 190.12 0 0 h 29.55 1.7 v 0 -121.34 h 241.12 v 72.18 0 0 h 29.55 1.7 v 0 z m -218.24,142.53 c 13.08,0 23.02,-9.81 23.02,-22.89 0,-13.2 -9.94,-23.01 -23.02,-23.01 v 0 c 11.51,-3.27 23.02,-8.24 23.02,-16.34 v -3.28 h -70.61 v 18.05 c 0,3.14 1.57,4.84 3.27,6.54 1.7,1.57 18.04,0 34.39,-3.4 -8.11,4.97 -13.08,11.51 -13.08,21.44 0,13.08 9.94,22.89 23.01,22.89 z m 31.12,-65.52 h 142.79 c 41.05,0 -142.79,80.29 -142.79,0 v 0"
         style="fill:#706d6e;fill-opacity:1;fill-rule:evenodd;stroke:none"
         transform="matrix(0.13333333,0,0,-0.13333333,0,1066.6667)" /><path
         id="path43"
         d="m 1895.09,7256.48 c 55.7,-27.85 108.26,-40.93 160.83,-39.23 40.93,0 80.41,8.11 121.34,24.45 v 1.7 0 c 9.94,3.27 18.05,8.24 26.28,13.08 6.67,-1.57 9.81,-6.54 6.67,-13.08 -3.4,-1.7 -6.67,-3.27 -9.94,-4.84 v -60.67 c 0,-4.96 -4.96,-8.24 -8.1,-8.24 h -8.37 c -3.27,0 -6.54,3.28 -6.54,8.24 v 49.16 c -13.08,-4.96 -26.15,-8.23 -37.66,-11.5 v -63.94 c 0,-4.97 -4.97,-8.1 -8.23,-8.1 h -8.24 c -3.27,0 -8.24,3.13 -8.24,8.1 v 57.41 c -16.35,-3.28 -34.39,-4.98 -52.43,-6.54 v -60.68 c 0,-4.96 -3.27,-8.24 -6.54,-8.24 h -8.24 c -4.97,0 -8.24,3.28 -8.24,8.24 v 60.68 c -16.47,1.56 -32.81,3.26 -49.29,6.54 v -57.41 c 0,-4.97 -3.27,-8.1 -8.11,-8.1 h -6.54 c -4.96,0 -8.23,3.13 -8.23,8.1 v 62.24 c -14.78,4.97 -29.56,9.94 -44.33,14.78 v -50.74 c 0,-4.96 -3.27,-8.24 -8.24,-8.24 h -6.54 c -4.96,0 -8.23,3.28 -8.23,8.24 v 60.67 c -3.27,1.57 -6.54,3.14 -9.81,4.84 -4.97,8.24 -3.27,11.51 4.97,13.08 z m 58.97,100.02 c 9.94,4.98 19.74,6.54 31.25,8.24 11.51,1.57 23.02,1.57 34.52,1.57 11.51,-1.57 22.88,-1.57 34.39,-1.57 13.21,-1.7 24.58,-3.26 36.09,-4.97 4.97,-1.69 11.51,-1.69 16.35,-3.27 4.96,-1.56 11.63,-3.26 16.47,-4.96 11.5,-1.58 21.31,-4.84 29.55,-9.81 9.81,-3.27 18.04,-6.54 26.28,-11.5 8.24,-3.28 14.78,-6.54 21.31,-11.38 8.24,-4.97 4.97,-1.7 13.08,-8.24 -70.48,-98.33 -236.27,-108.13 -315.12,-8.23 -29.42,23.01 36.09,47.58 55.83,54.12 v 0"
         style="fill:#706d6e;fill-opacity:1;fill-rule:evenodd;stroke:none"
         transform="matrix(0.13333333,0,0,-0.13333333,0,1066.6667)" /><path
         id="path44"
         d="m 722.078,7204.18 c -1.828,0 -6.535,-1.7 -9.933,-1.7 -13.079,0 -24.586,11.5 -24.586,26.27 0,40.93 62.375,26.16 50.734,0 27.98,21.32 54.266,9.81 83.816,-21.31 -18.046,-21.31 -109.964,-32.81 -100.031,-3.26 z m -75.574,-8.24 c 3.266,-9.81 8.238,-22.88 27.976,-32.82 l -13.203,-78.59 h 182.145 l -11.508,73.75 c 16.477,9.81 18.043,27.85 21.445,37.66 36.09,157.43 -244.515,162.26 -206.855,0 z m 106.695,129.58 c 24.582,0 46.024,19.61 46.024,45.76 0,26.28 -21.442,47.6 -46.024,47.6 -24.582,0 -46.027,-21.32 -46.027,-47.6 0,-26.15 21.445,-45.76 46.027,-45.76 v 0"
         style="fill:#706d6e;fill-opacity:1;fill-rule:evenodd;stroke:none"
         transform="matrix(0.13333333,0,0,-0.13333333,0,1066.6667)" /></g></g></svg>
